<svg width="30" height="30" viewBox="0 0 30 30" fill="none" xmlns="http://www.w3.org/2000/svg">
<path d="M28.4316 16.028C26.45 8.71838 18.918 4.39918 11.6084 6.38084C6.9635 7.64004 3.31869 11.242 2.00459 15.8717C0.891086 16.1117 0.072541 17.0621 0 18.1988C0.0545902 19.2302 0.742008 20.1202 1.72623 20.4336L2.9818 23.7818C3.05398 23.9737 3.2376 24.1006 3.44262 24.1004H27.0492C27.2542 24.1006 27.4378 23.9736 27.51 23.7818L28.8821 20.1222C29.5562 19.7115 29.9768 18.9878 30 18.1988C29.9552 17.2278 29.3394 16.3756 28.4316 16.028ZM15.1967 6.88733C20.74 6.88125 25.6478 10.4682 27.3251 15.7516C27.2341 15.7442 27.1421 15.7398 27.0492 15.7398C26.4443 15.7354 25.8495 15.8948 25.3279 16.2011C24.2584 15.6026 22.9547 15.6026 21.8852 16.2011C20.8158 15.6026 19.5121 15.6026 18.4426 16.2011C17.3731 15.6026 16.0695 15.6026 15 16.2011C13.9305 15.6026 12.6269 15.6026 11.5574 16.2011C10.4879 15.6026 9.18424 15.6026 8.11475 16.2011C7.04527 15.6026 5.74162 15.6026 4.67213 16.2011C4.18525 15.9167 3.63406 15.7606 3.07033 15.7477C4.75402 10.4703 9.6573 6.88764 15.1967 6.88733ZM3.78344 23.1168L2.85984 20.6539C2.89033 20.6539 2.92033 20.6578 2.95082 20.6578C3.37242 20.6574 3.79033 20.5796 4.18377 20.4282L5.19197 23.1168H3.78344ZM6.24246 23.1168L5.24311 20.4518C5.71758 20.6112 6.21996 20.6705 6.71852 20.6259L7.65098 23.1168H6.24246ZM8.70148 23.1168L7.68492 20.405C7.83375 20.3476 7.97754 20.2778 8.11475 20.1965C8.40756 20.367 8.72613 20.4888 9.05803 20.557L9.69738 23.1144L8.70148 23.1168ZM10.712 23.1168L10.0903 20.6298C10.5402 20.603 10.9801 20.4859 11.3838 20.2855L11.7379 23.1168H10.712ZM13.7705 23.1168H12.7293L12.4067 20.5393C12.8529 20.6477 13.3154 20.6721 13.7705 20.6111V23.1168ZM15.7377 23.1168H14.7541V20.3195C14.8381 20.2826 14.9201 20.2416 15 20.1965C15.2312 20.3319 15.4792 20.4363 15.7377 20.5068V23.1168ZM17.7625 23.1168H16.7213V20.6455C17.1974 20.6471 17.6689 20.5513 18.1067 20.3642L17.7625 23.1168ZM19.7789 23.1168H18.7539L19.0839 20.4749C19.5097 20.6078 19.9565 20.6607 20.4015 20.6308L19.7789 23.1168ZM21.7893 23.1168H20.7939L21.4731 20.3991C21.6157 20.3426 21.7534 20.2749 21.8852 20.1965C22.156 20.3554 22.4494 20.4723 22.7552 20.5432L21.7893 23.1168ZM22.8398 23.1168L23.7708 20.6352C24.3177 20.6192 24.8522 20.4685 25.3269 20.1965C25.3313 20.1995 25.3362 20.2009 25.3407 20.2039L24.2493 23.1168H22.8398ZM26.7074 23.1168H25.2998L26.2579 20.5624C26.7138 20.6726 27.1877 20.6876 27.6497 20.6062L26.7074 23.1168ZM27.0492 19.6742C26.5387 19.6829 26.0399 19.5211 25.6318 19.2144C25.4535 19.0742 25.2023 19.0742 25.0239 19.2144C24.1721 19.8074 23.041 19.8074 22.1892 19.2144C22.0108 19.0742 21.7597 19.0742 21.5813 19.2144C20.7294 19.8074 19.5984 19.8074 18.7466 19.2144C18.5682 19.0742 18.317 19.0742 18.1387 19.2144C17.2868 19.8074 16.1558 19.8074 15.3039 19.2144C15.1256 19.0742 14.8744 19.0742 14.6961 19.2144C13.8442 19.8074 12.7132 19.8074 11.8613 19.2144C11.683 19.0742 11.4318 19.0742 11.2534 19.2144C10.4016 19.8074 9.27055 19.8074 8.41869 19.2144C8.24035 19.0742 7.98916 19.0742 7.81082 19.2144C6.95895 19.8074 5.82793 19.8074 4.97607 19.2144C4.79773 19.0742 4.54654 19.0742 4.3682 19.2144C3.96006 19.5211 3.46125 19.6829 2.95082 19.6742C1.8659 19.6742 0.983607 19.0122 0.983607 18.1988C0.983607 17.3854 1.8659 16.7234 2.95082 16.7234C3.46125 16.7147 3.96006 16.8765 4.3682 17.1832C4.54654 17.3235 4.79773 17.3235 4.97607 17.1832C5.82793 16.5902 6.95895 16.5902 7.81082 17.1832C7.98916 17.3235 8.24035 17.3235 8.41869 17.1832C9.27055 16.5902 10.4016 16.5902 11.2534 17.1832C11.4318 17.3235 11.683 17.3235 11.8613 17.1832C12.7132 16.5902 13.8442 16.5902 14.6961 17.1832C14.8744 17.3235 15.1256 17.3235 15.3039 17.1832C16.1558 16.5902 17.2868 16.5902 18.1387 17.1832C18.317 17.3235 18.5682 17.3235 18.7466 17.1832C19.5984 16.5902 20.7294 16.5902 21.5813 17.1832C21.7597 17.3235 22.0108 17.3235 22.1892 17.1832C23.041 16.5902 24.1721 16.5902 25.0239 17.1832C25.2023 17.3235 25.4535 17.3235 25.6318 17.1832C26.0399 16.8765 26.5387 16.7147 27.0492 16.7234C28.1341 16.7234 29.0164 17.3854 29.0164 18.1988C29.0164 19.0122 28.1341 19.6742 27.0492 19.6742Z" fill="#554AB2"/>
<path d="M16.8949 12.3428L15.7067 9.17316C15.6119 8.91865 15.3286 8.78924 15.0741 8.88416C14.9404 8.93402 14.8349 9.03945 14.7851 9.17316L13.5969 12.3428C13.2552 13.2526 13.7157 14.2671 14.6255 14.6088C14.8238 14.6833 15.034 14.7214 15.2459 14.7212C16.2178 14.7221 17.0063 13.935 17.0073 12.9632C17.0075 12.7513 16.9694 12.5412 16.8949 12.3428ZM15.5194 13.6918C15.1174 13.8429 14.6691 13.6394 14.518 13.2374C14.4518 13.0611 14.4518 12.8668 14.518 12.6905L15.2459 10.7469L15.9738 12.6905C16.1248 13.0925 15.9213 13.5409 15.5194 13.6918Z" fill="#554AB2"/>
<path d="M12.0516 8.6643C11.9221 8.60529 11.7735 8.60523 11.6439 8.66412L8.56278 10.0648C7.67784 10.4685 7.28772 11.5131 7.69142 12.398C7.9779 13.026 8.60483 13.4287 9.29507 13.4282C9.98538 13.4271 10.6116 13.0235 10.8979 12.3954L12.2951 9.31576C12.4078 9.06863 12.2987 8.77693 12.0516 8.6643ZM10.0028 11.9887C9.82487 12.3795 9.36374 12.5521 8.97294 12.3742C8.58214 12.1962 8.40952 11.7351 8.58749 11.3443C8.66526 11.1735 8.80216 11.0366 8.97294 10.9589L10.8605 10.1012L10.0028 11.9887Z" fill="#554AB2"/>
<path d="M22.4669 10.942C22.2907 10.553 21.9791 10.2413 21.5902 10.0649L18.5085 8.66422C18.2612 8.55209 17.9697 8.66176 17.8576 8.90914C17.799 9.03842 17.7991 9.1867 17.8579 9.31586L19.2585 12.3955C19.6599 13.2815 20.7035 13.6743 21.5895 13.273C22.4755 12.8716 22.8683 11.828 22.4669 10.942ZM21.5698 11.988C21.3922 12.379 20.9313 12.552 20.5404 12.3744C20.3692 12.2966 20.232 12.1595 20.1542 11.9884L19.296 10.1008L21.1835 10.9585C21.5744 11.1361 21.7474 11.597 21.5698 11.988Z" fill="#554AB2"/>
</svg>
