<svg width="30" height="30" viewBox="0 0 30 30" fill="none" xmlns="http://www.w3.org/2000/svg">
<g clip-path="url(#clip0)">
<path d="M29.3989 14.0598C28.8005 13.4626 27.8533 13.1038 26.9895 12.9547C24.7837 9.20482 20.1153 6.79688 15.0001 6.79688C9.89093 6.79688 5.22462 9.20101 3.0166 12.9449C2.211 13.0769 1.46282 13.3912 0.818592 13.8741C0.381487 14.2019 0.0982477 14.6802 0.0209632 15.221C-0.0562626 15.7617 0.0817244 16.3003 0.409495 16.7373C0.978552 17.4959 1.96626 17.7549 2.81498 17.4077L4.49449 21.6604C4.69219 22.1611 5.10363 23.203 6.21127 23.203H23.7891C24.8968 23.203 25.3082 22.1612 25.5059 21.6604L27.183 17.4136C27.9315 17.717 28.8049 17.5546 29.3993 16.9602C29.7866 16.5729 30 16.0579 30 15.5101C30 14.9624 29.7866 14.4474 29.3989 14.0598ZM15.0001 7.96874C19.3977 7.96874 23.4197 9.87436 25.558 12.8968C24.4458 12.9951 23.8043 13.3869 23.3189 13.6837C22.9302 13.9213 22.7127 14.0453 22.3983 14.0453C22.084 14.0453 21.8665 13.9213 21.4777 13.6837C20.9185 13.3417 20.1526 12.8735 18.6979 12.8735C17.2431 12.8735 16.4772 13.3417 15.9179 13.6837C15.5292 13.9213 15.3117 14.0453 14.9974 14.0453C14.683 14.0453 14.4655 13.9213 14.0768 13.6837C13.5176 13.3418 12.7516 12.8735 11.2969 12.8735C9.84218 12.8735 9.07625 13.3417 8.51697 13.6837C8.12827 13.9213 7.91083 14.0453 7.59648 14.0453C7.28212 14.0453 7.06462 13.9213 6.67586 13.6837C6.19124 13.3874 5.55099 12.9964 4.44205 12.8973C6.58035 9.87489 10.6037 7.96874 15.0001 7.96874ZM24.4159 21.23C24.1513 21.9 23.9856 22.0311 23.7891 22.0311H6.21122C6.01458 22.0311 5.84893 21.9 5.58439 21.23L3.90405 16.9752C4.21395 16.9774 4.43115 17.1011 4.81646 17.3367C5.37579 17.6786 6.14172 18.1469 7.59642 18.1469C9.05117 18.1469 9.81704 17.6786 10.3763 17.3367C10.765 17.099 10.9825 16.975 11.2969 16.975C11.6112 16.975 11.8287 17.0991 12.2174 17.3367C12.7767 17.6786 13.5426 18.1469 14.9973 18.1469C16.4521 18.1469 17.218 17.6786 17.7772 17.3367C18.166 17.099 18.3835 16.975 18.6978 16.975C19.0122 16.975 19.2297 17.0991 19.6184 17.3367C20.1777 17.6786 20.9436 18.1469 22.3983 18.1469C23.853 18.1469 24.6189 17.6786 25.1782 17.3367C25.5658 17.0997 25.7832 16.9758 26.0961 16.9751L24.4159 21.23ZM28.5707 16.1315C28.266 16.4362 27.7906 16.4763 27.4406 16.2272C27.4286 16.2186 27.4162 16.2105 27.4035 16.2028C27.0832 16.0095 26.6917 15.8032 26.0988 15.8032C25.44 15.8032 24.9962 16.0745 24.5669 16.3369C24.0538 16.6506 23.5232 16.975 22.3983 16.975C21.2734 16.975 20.7428 16.6506 20.2296 16.3369C19.8004 16.0745 19.3567 15.8032 18.6978 15.8032C18.0389 15.8032 17.5951 16.0745 17.1659 16.3369C16.6528 16.6506 16.1221 16.975 14.9972 16.975C13.8723 16.975 13.3417 16.6506 12.8286 16.3369C12.3994 16.0745 11.9556 15.8032 11.2967 15.8032C10.6378 15.8032 10.194 16.0745 9.76483 16.3369C9.25167 16.6506 8.72111 16.975 7.59618 16.975C6.47125 16.975 5.94063 16.6506 5.42747 16.3369C4.99828 16.0745 4.55449 15.8032 3.89561 15.8032C3.29175 15.8032 2.90656 16.0091 2.50051 16.258C2.12135 16.4895 1.61458 16.3913 1.34658 16.0341C1.20665 15.8475 1.14771 15.6176 1.18076 15.3868C1.21374 15.1559 1.33468 14.9516 1.52124 14.8118C2.19014 14.3104 3.01127 14.0454 3.89561 14.0454C5.02048 14.0454 5.55116 14.3698 6.06432 14.6835C6.49346 14.946 6.93724 15.2172 7.59618 15.2172C8.255 15.2172 8.69879 14.946 9.12798 14.6835C9.64114 14.3698 10.1718 14.0454 11.2967 14.0454C12.4216 14.0454 12.9522 14.3698 13.4653 14.6835C13.8945 14.946 14.3383 15.2172 14.9972 15.2172C15.656 15.2172 16.0998 14.946 16.5291 14.6836C17.0422 14.3698 17.5728 14.0454 18.6978 14.0454C19.8226 14.0454 20.3533 14.3698 20.8664 14.6835C21.2956 14.9459 21.7393 15.2172 22.3983 15.2172C23.0571 15.2172 23.5009 14.946 23.9301 14.6835C24.4433 14.3698 24.9739 14.0454 26.0988 14.0454C26.8984 14.0454 28.0418 14.361 28.5707 14.8889C28.7367 15.0549 28.8281 15.2755 28.8281 15.5102C28.8281 15.7449 28.7367 15.9655 28.5707 16.1315Z" fill="#554AB2"/>
<path d="M15.0023 11.6097C15.3259 11.6097 15.5883 11.3474 15.5883 11.0238V9.85193C15.5883 9.52832 15.3259 9.26599 15.0023 9.26599C14.6788 9.26599 14.4164 9.52832 14.4164 9.85193V11.0238C14.4164 11.3474 14.6787 11.6097 15.0023 11.6097Z" fill="#554AB2"/>
<path d="M11.1662 11.4381C11.3162 11.4381 11.4661 11.3809 11.5805 11.2665L12.4092 10.4379C12.638 10.2091 12.638 9.83804 12.4092 9.60923C12.1805 9.38042 11.8096 9.38042 11.5805 9.60923L10.7518 10.4379C10.523 10.6667 10.523 11.0377 10.7518 11.2665C10.8663 11.3809 11.0163 11.4381 11.1662 11.4381Z" fill="#554AB2"/>
<path d="M18.424 11.2666C18.5385 11.3811 18.6884 11.4382 18.8383 11.4382C18.9883 11.4382 19.1382 11.381 19.2527 11.2666C19.4815 11.0378 19.4815 10.6668 19.2527 10.438L18.424 9.60935C18.1951 9.38054 17.8242 9.38054 17.5953 9.60935C17.3665 9.83816 17.3665 10.2092 17.5953 10.438L18.424 11.2666Z" fill="#554AB2"/>
</g>
<defs>
<clipPath id="clip0">
<rect width="30" height="30" fill="white"/>
</clipPath>
</defs>
</svg>
