<svg width="30" height="30" viewBox="0 0 30 30" fill="none" xmlns="http://www.w3.org/2000/svg">
<g clip-path="url(#clip0)">
<path d="M29.6415 12.7042C29.5328 12.546 29.4042 12.4065 29.2604 12.2874C25.3029 8.83079 20.2322 6.92749 14.9724 6.92749C12.2954 6.92749 9.68092 7.41452 7.20176 8.37505C4.82068 9.29755 2.62699 10.6305 0.681387 12.3369C0.681621 12.3372 0.681738 12.3376 0.681973 12.338C0.263906 12.711 0 13.2533 0 13.8563C0 14.4834 0.288984 15.0731 0.779004 15.4572L2.65471 22.6156C2.72525 22.8848 2.96853 23.0725 3.24686 23.0725H26.755C27.0333 23.0725 27.2766 22.8848 27.3471 22.6156L29.224 15.4542C29.6129 15.1486 29.8746 14.7179 29.9654 14.2272C30.0644 13.6927 29.9493 13.1518 29.6415 12.7042ZM14.9724 8.15192C19.3175 8.15192 23.5257 9.52829 27.0122 12.0594C26.9439 12.0958 26.877 12.1357 26.8123 12.1801L25.5122 13.0739C25.4299 13.1305 25.315 13.1305 25.2327 13.0737C23.7696 12.0642 21.8027 12.0624 20.3401 13.0678L20.329 13.0753C20.247 13.1317 20.1328 13.1321 20.0526 13.0768L20.0399 13.0681C18.5767 12.0621 16.6106 12.0629 15.1482 13.0697L15.1388 13.0761C15.0567 13.1326 14.9425 13.1331 14.8612 13.0772L14.8494 13.0691C13.3872 12.0637 11.4212 12.0644 9.95895 13.0696L9.94945 13.0761C9.8673 13.1326 9.7534 13.1332 9.6719 13.0771L9.65959 13.0686C8.19744 12.0632 6.23285 12.0629 4.76982 13.0686L4.7618 13.0742C4.67971 13.1308 4.56492 13.1305 4.48266 13.0738L3.22166 12.2037C3.14695 12.15 3.06891 12.1028 2.98887 12.0602C6.47895 9.52858 10.6676 8.15192 14.9724 8.15192ZM26.2825 21.8482H3.7193L2.32389 16.5227C3.7691 17.4312 5.65201 17.4001 7.06564 16.4282L7.07537 16.4215C7.15752 16.3651 7.27143 16.3644 7.35305 16.4206L7.36547 16.4291C8.82773 17.4343 10.7937 17.4335 12.2558 16.4283L12.2653 16.4218C12.3474 16.3654 12.4615 16.365 12.5445 16.4221L12.5545 16.4289C13.2726 16.9226 14.1179 17.1836 14.9989 17.1836C15.8812 17.1836 16.7276 16.922 17.4455 16.4279L17.4557 16.421C17.5378 16.3645 17.6521 16.364 17.7323 16.4193L17.7449 16.428C19.2071 17.4333 21.1717 17.4336 22.6328 16.4292L22.6426 16.4225C22.7248 16.366 22.8396 16.3661 22.9218 16.4227C24.3397 17.401 26.2308 17.433 27.6795 16.5178L26.2825 21.8482ZM28.7616 14.0043C28.7221 14.2171 28.6022 14.4017 28.4239 14.5243L27.1236 15.4183C26.0744 16.1395 24.6653 16.1384 23.6171 15.4151C23.1182 15.0711 22.4479 15.0707 21.9497 15.4134L21.94 15.4201C20.893 16.1398 19.4861 16.1395 18.4398 15.4201L18.4271 15.4114C17.9293 15.0691 17.26 15.0697 16.7629 15.4118L16.7527 15.4188C16.2387 15.7726 15.6322 15.9596 14.9991 15.9596C14.3668 15.9596 13.7614 15.7732 13.2468 15.4192L13.2368 15.4125C12.7393 15.0703 12.0702 15.0706 11.5733 15.4122L11.5638 15.4187C10.515 16.1397 9.10664 16.1404 8.05869 15.4201L8.04639 15.4116C7.79795 15.2408 7.50686 15.1555 7.21547 15.1555C6.92367 15.1555 6.6317 15.2412 6.38262 15.4123L6.37289 15.419C5.32418 16.1401 3.91541 16.1386 2.86734 15.4153L1.57436 14.5231C1.35521 14.3718 1.22438 14.1226 1.22438 13.8563C1.22438 13.4095 1.58777 13.046 2.03449 13.046C2.2067 13.046 2.37094 13.0991 2.50945 13.1995C2.51338 13.2024 2.5173 13.2051 2.52129 13.2079L3.78744 14.0814C4.28613 14.4257 4.95662 14.4263 5.45689 14.0823L5.46486 14.0769C6.51182 13.3571 7.91889 13.3573 8.96666 14.0779L8.97896 14.0864C9.47625 14.4282 10.145 14.4277 10.6419 14.0862L10.6513 14.0797C11.7002 13.3586 13.1086 13.3579 14.1558 14.0779L14.1675 14.086C14.6653 14.4284 15.3347 14.4279 15.8327 14.0851L15.8422 14.0786C16.8902 13.3572 18.2985 13.3565 19.3455 14.0763L19.3581 14.085C19.8558 14.4271 20.525 14.4268 21.0213 14.0854L21.0321 14.078C22.0808 13.357 23.4896 13.3584 24.5374 14.0815C25.0359 14.4256 25.7063 14.4263 26.2059 14.0831L27.5061 13.1892C27.6845 13.0666 27.9 13.0209 28.1127 13.0601C28.3254 13.0996 28.5101 13.2195 28.6327 13.3978C28.7551 13.5762 28.8009 13.7916 28.7616 14.0043Z" fill="#554AB2"/>
<path d="M13.2335 19.7661H13.2255C12.8874 19.7661 12.6133 20.0402 12.6133 20.3783C12.6133 20.7164 12.8874 20.9905 13.2255 20.9905H13.2335C13.5716 20.9905 13.8457 20.7164 13.8457 20.3783C13.8457 20.0402 13.5716 19.7661 13.2335 19.7661Z" fill="#554AB2"/>
<path d="M11.245 19.7662H4.73847C4.40038 19.7662 4.12628 20.0403 4.12628 20.3784C4.12628 20.7165 4.40038 20.9906 4.73847 20.9906H11.245C11.583 20.9906 11.8571 20.7165 11.8571 20.3784C11.8571 20.0403 11.5831 19.7662 11.245 19.7662Z" fill="#554AB2"/>
<path d="M7.71473 9.97034C7.37664 9.97034 7.10254 10.2444 7.10254 10.5825V11.4165C7.10254 11.7546 7.37664 12.0287 7.71473 12.0287C8.05282 12.0287 8.32692 11.7546 8.32692 11.4165V10.5825C8.32692 10.2444 8.05287 9.97034 7.71473 9.97034Z" fill="#554AB2"/>
<path d="M11.3573 8.86853C11.0192 8.86853 10.7451 9.14263 10.7451 9.48072V10.3147C10.7451 10.6528 11.0192 10.9269 11.3573 10.9269C11.6954 10.9269 11.9695 10.6528 11.9695 10.3147V9.48072C11.9695 9.14257 11.6954 8.86853 11.3573 8.86853Z" fill="#554AB2"/>
<path d="M14.9998 9.97034C14.6617 9.97034 14.3876 10.2444 14.3876 10.5825V11.4165C14.3876 11.7546 14.6617 12.0287 14.9998 12.0287C15.3379 12.0287 15.612 11.7546 15.612 11.4165V10.5825C15.612 10.2444 15.3379 9.97034 14.9998 9.97034Z" fill="#554AB2"/>
<path d="M18.6424 8.86853C18.3043 8.86853 18.0302 9.14263 18.0302 9.48072V10.3147C18.0302 10.6528 18.3043 10.9269 18.6424 10.9269C18.9805 10.9269 19.2546 10.6528 19.2546 10.3147V9.48072C19.2546 9.14257 18.9805 8.86853 18.6424 8.86853Z" fill="#554AB2"/>
<path d="M22.2849 9.97034C21.9468 9.97034 21.6727 10.2444 21.6727 10.5825V11.4165C21.6727 11.7546 21.9468 12.0287 22.2849 12.0287C22.623 12.0287 22.8971 11.7546 22.8971 11.4165V10.5825C22.8971 10.2444 22.623 9.97034 22.2849 9.97034Z" fill="#554AB2"/>
</g>
<defs>
<clipPath id="clip0">
<rect width="30" height="30" fill="white"/>
</clipPath>
</defs>
</svg>
