<svg width="30" height="30" viewBox="0 0 30 30" fill="none" xmlns="http://www.w3.org/2000/svg">
<path d="M11.25 21.5625H12.1875V22.5H11.25V21.5625Z" fill="#554AB2"/>
<path d="M13.125 20.625H14.0625V21.5625H13.125V20.625Z" fill="#554AB2"/>
<path d="M18.75 13.5938H19.6875V14.5312H18.75V13.5938Z" fill="#554AB2"/>
<path d="M17.3438 15.4688H18.2812V16.4062H17.3438V15.4688Z" fill="#554AB2"/>
<path d="M18.75 16.875H19.6875V17.8125H18.75V16.875Z" fill="#554AB2"/>
<path d="M18.2812 0.9375H16.4062C16.2819 0.9375 16.1627 0.986886 16.0748 1.07479C15.9869 1.1627 15.9375 1.28193 15.9375 1.40625V6.5625H7.03125C6.90693 6.5625 6.7877 6.61189 6.69979 6.69979C6.61189 6.7877 6.5625 6.90693 6.5625 7.03125V9.84375C6.5625 9.96807 6.61189 10.0873 6.69979 10.1752C6.7877 10.2631 6.90693 10.3125 7.03125 10.3125H8.01563L9.84844 28.6406C9.8601 28.7567 9.91458 28.8642 10.0013 28.9422C10.0879 29.0202 10.2006 29.0631 10.3172 29.0625H19.6875C19.8041 29.0631 19.9168 29.0202 20.0034 28.9422C20.0901 28.8642 20.1446 28.7567 20.1562 28.6406L21.9867 10.3125H22.9688C23.0931 10.3125 23.2123 10.2631 23.3002 10.1752C23.3881 10.0873 23.4375 9.96807 23.4375 9.84375V7.03125C23.4375 6.90693 23.3881 6.7877 23.3002 6.69979C23.2123 6.61189 23.0931 6.5625 22.9688 6.5625H18.75V1.40625C18.75 1.28193 18.7006 1.1627 18.6127 1.07479C18.5248 0.986886 18.4056 0.9375 18.2812 0.9375ZM16.875 1.875H17.8125V6.5625H16.875V1.875ZM19.2656 28.125H10.7367L9.29484 13.7058C10.0803 13.9456 10.8975 14.0659 11.7188 14.0625C12.929 14.1034 14.1291 13.8288 15.2011 13.2656C16.1482 12.7647 17.2106 12.5222 18.2812 12.5625C19.134 12.5319 19.9837 12.6797 20.7759 12.9966L19.2656 28.125ZM20.8748 12.0309C20.0426 11.7375 19.1634 11.5999 18.2812 11.625C17.071 11.5841 15.8709 11.8587 14.7989 12.4219C13.8518 12.9228 12.7894 13.1653 11.7188 13.125C10.8568 13.1295 10.001 12.9791 9.19219 12.6811L8.95547 10.3125H21.0469L20.8748 12.0309ZM22.5 7.5V9.375H7.5V7.5H22.5Z" fill="#554AB2"/>
<path d="M13.125 19.2187C13.3114 19.2253 13.4972 19.1934 13.6708 19.125C13.8444 19.0567 14.002 18.9533 14.1339 18.8214C14.2658 18.6895 14.3692 18.5319 14.4375 18.3583C14.5059 18.1847 14.5378 17.9989 14.5312 17.8125V16.875C14.5378 16.6885 14.5059 16.5028 14.4375 16.3292C14.3692 16.1556 14.2658 15.998 14.1339 15.866C14.002 15.7341 13.8444 15.6308 13.6708 15.5624C13.4972 15.4941 13.3114 15.4622 13.125 15.4687H12.1875C12.001 15.4622 11.8153 15.4941 11.6417 15.5624C11.4681 15.6308 11.3105 15.7341 11.1785 15.866C11.0466 15.998 10.9433 16.1556 10.8749 16.3292C10.8066 16.5028 10.7747 16.6885 10.7812 16.875V17.8125C10.7747 17.9989 10.8066 18.1847 10.8749 18.3583C10.9433 18.5319 11.0466 18.6895 11.1785 18.8214C11.3105 18.9533 11.4681 19.0567 11.6417 19.125C11.8153 19.1934 12.001 19.2253 12.1875 19.2187H13.125ZM11.7187 17.8125V16.875C11.7121 16.8118 11.7197 16.7479 11.7409 16.688C11.7621 16.6282 11.7964 16.5738 11.8413 16.5288C11.8863 16.4839 11.9407 16.4496 12.0005 16.4284C12.0604 16.4072 12.1243 16.3996 12.1875 16.4062H13.125C13.1882 16.3996 13.252 16.4072 13.3119 16.4284C13.3718 16.4496 13.4262 16.4839 13.4711 16.5288C13.516 16.5738 13.5504 16.6282 13.5716 16.688C13.5928 16.7479 13.6004 16.8118 13.5937 16.875V17.8125C13.6004 17.8757 13.5928 17.9395 13.5716 17.9994C13.5504 18.0593 13.516 18.1137 13.4711 18.1586C13.4262 18.2035 13.3718 18.2379 13.3119 18.2591C13.252 18.2803 13.1882 18.2879 13.125 18.2812H12.1875C12.1243 18.2879 12.0604 18.2803 12.0005 18.2591C11.9407 18.2379 11.8863 18.2035 11.8413 18.1586C11.7964 18.1137 11.7621 18.0593 11.7409 17.9994C11.7197 17.9395 11.7121 17.8757 11.7187 17.8125Z" fill="#554AB2"/>
<path d="M16.4062 19.2187C16.2198 19.2122 16.034 19.2441 15.8604 19.3124C15.6869 19.3808 15.5292 19.4841 15.3973 19.616C15.2654 19.748 15.162 19.9056 15.0937 20.0792C15.0253 20.2528 14.9934 20.4385 15 20.625V21.5625C14.9934 21.7489 15.0253 21.9347 15.0937 22.1083C15.162 22.2819 15.2654 22.4395 15.3973 22.5714C15.5292 22.7033 15.6869 22.8067 15.8604 22.875C16.034 22.9434 16.2198 22.9753 16.4062 22.9687H17.3437C17.5302 22.9753 17.716 22.9434 17.8895 22.875C18.0631 22.8067 18.2208 22.7033 18.3527 22.5714C18.4846 22.4395 18.5879 22.2819 18.6563 22.1083C18.7246 21.9347 18.7565 21.7489 18.75 21.5625V20.625C18.7565 20.4385 18.7246 20.2528 18.6563 20.0792C18.5879 19.9056 18.4846 19.748 18.3527 19.616C18.2208 19.4841 18.0631 19.3808 17.8895 19.3124C17.716 19.2441 17.5302 19.2122 17.3437 19.2187H16.4062ZM17.8125 20.625V21.5625C17.8191 21.6257 17.8115 21.6895 17.7903 21.7494C17.7691 21.8093 17.7348 21.8637 17.6899 21.9086C17.6449 21.9535 17.5906 21.9879 17.5307 22.0091C17.4708 22.0303 17.4069 22.0379 17.3437 22.0312H16.4062C16.343 22.0379 16.2792 22.0303 16.2193 22.0091C16.1594 21.9879 16.105 21.9535 16.0601 21.9086C16.0152 21.8637 15.9808 21.8093 15.9596 21.7494C15.9384 21.6895 15.9309 21.6257 15.9375 21.5625V20.625C15.9309 20.5618 15.9384 20.4979 15.9596 20.438C15.9808 20.3782 16.0152 20.3238 16.0601 20.2788C16.105 20.2339 16.1594 20.1996 16.2193 20.1784C16.2792 20.1572 16.343 20.1496 16.4062 20.1562H17.3437C17.4069 20.1496 17.4708 20.1572 17.5307 20.1784C17.5906 20.1996 17.6449 20.2339 17.6899 20.2788C17.7348 20.3238 17.7691 20.3782 17.7903 20.438C17.8115 20.4979 17.8191 20.5618 17.8125 20.625Z" fill="#554AB2"/>
<path d="M14.0625 23.4375H13.125C12.9385 23.4309 12.7528 23.4628 12.5792 23.5312C12.4056 23.5995 12.248 23.7029 12.116 23.8348C11.9841 23.9667 11.8808 24.1244 11.8124 24.2979C11.7441 24.4715 11.7122 24.6573 11.7187 24.8437V25.7812C11.7122 25.9677 11.7441 26.1535 11.8124 26.327C11.8808 26.5006 11.9841 26.6583 12.116 26.7902C12.248 26.9221 12.4056 27.0254 12.5792 27.0938C12.7528 27.1621 12.9385 27.194 13.125 27.1875H14.0625C14.2489 27.194 14.4347 27.1621 14.6083 27.0938C14.7819 27.0254 14.9395 26.9221 15.0714 26.7902C15.2033 26.6583 15.3067 26.5006 15.375 26.327C15.4434 26.1535 15.4753 25.9677 15.4687 25.7812V24.8437C15.4753 24.6573 15.4434 24.4715 15.375 24.2979C15.3067 24.1244 15.2033 23.9667 15.0714 23.8348C14.9395 23.7029 14.7819 23.5995 14.6083 23.5312C14.4347 23.4628 14.2489 23.4309 14.0625 23.4375ZM14.5312 25.7812C14.5379 25.8444 14.5303 25.9083 14.5091 25.9682C14.4879 26.0281 14.4535 26.0824 14.4086 26.1274C14.3637 26.1723 14.3093 26.2066 14.2494 26.2278C14.1895 26.249 14.1257 26.2566 14.0625 26.25H13.125C13.0618 26.2566 12.9979 26.249 12.938 26.2278C12.8782 26.2066 12.8238 26.1723 12.7788 26.1274C12.7339 26.0824 12.6996 26.0281 12.6784 25.9682C12.6572 25.9083 12.6496 25.8444 12.6562 25.7812V24.8437C12.6496 24.7805 12.6572 24.7167 12.6784 24.6568C12.6996 24.5969 12.7339 24.5425 12.7788 24.4976C12.8238 24.4527 12.8782 24.4183 12.938 24.3971C12.9979 24.3759 13.0618 24.3684 13.125 24.375H14.0625C14.1257 24.3684 14.1895 24.3759 14.2494 24.3971C14.3093 24.4183 14.3637 24.4527 14.4086 24.4976C14.4535 24.5425 14.4879 24.5969 14.5091 24.6568C14.5303 24.7167 14.5379 24.7805 14.5312 24.8437V25.7812Z" fill="#554AB2"/>
</svg>
